<svg width="120" height="120" viewBox="0 0 120 120" fill="none" xmlns="http://www.w3.org/2000/svg">
<path d="M120 60C120 93 93 120 60 120C27 120 0 93 0 60C0 27 27 0 60 0C93 0 120 27 120 60Z" fill="white"/>
<path d="M16.0414 41.1813L14.1421 46.8647L37.7284 54.7468L39.6277 49.0633L16.0414 41.1813Z" fill="#93C120"/>
<path d="M63 12.0288H57V36.0288H63V12.0288Z" fill="#93C120"/>
<path d="M44.1696 73.8331L28.8804 96.8L33.8732 100.124L49.1624 77.1569L44.1696 73.8331Z" fill="#93C120"/>
<path d="M75.8373 73.8401L70.8445 77.1638L86.1337 100.131L91.1265 96.807L75.8373 73.8401Z" fill="#93C120"/>
<path d="M104.009 41.1653L71.3291 52.0862L73.2284 57.7696L105.908 46.8488L104.009 41.1653Z" fill="#93C120"/>
<path d="M36 51.0046L60 33.0046L84 51.0046L75 78.0046H45L36 51.0046ZM78 2.70464C72.3 0.904639 66.3 0.00463867 60 0.00463867C53.7 0.00463867 47.7 0.904639 42 2.70464L37.2 11.4046L60 18.0046L81 12.0046L78 2.70464ZM114 66.0046L120 60.0046C120 45.0046 114.6 31.5046 105.6 21.0046L99 21.9046V46.2046L114 66.0046ZM84.6 92.4046L71.7 112.805L78.6 117.005C92.1 112.505 103.5 103.505 110.7 91.8046L108.3 83.1046L84.6 92.4046ZM21.3 46.2046L21 21.9046L14.4 21.0046C5.4 31.5046 0 45.0046 0 60.0046L6 66.0046L21.3 46.2046ZM11.7 83.4046L9.3 92.1046C16.8 103.805 27.9 112.805 41.4 117.305L48 112.505L35.7 92.7046L11.7 83.4046Z" fill="black"/>
</svg>
