<svg width="167" height="120" viewBox="0 0 167 120" fill="none" xmlns="http://www.w3.org/2000/svg">
<path d="M94.8822 3.62427H132.853V18.1215H94.8822V3.62427Z" fill="#93C120"/>
<path d="M94.9209 3.61377H58.0919C52.3962 3.61377 47.457 6.51605 44.802 11.2305L32.2686 32.9763L45.5584 39.8568L58.0919 18.111H94.9209V44.2032H110.109V18.111C110.109 10.1404 103.272 3.61377 94.9209 3.61377Z" fill="#93C120"/>
<path d="M106.319 119.55H15.1884C6.83776 119.55 0 113.023 0 105.053V47.0639C0 39.0932 6.83776 32.5667 15.1884 32.5667H106.319C114.67 32.5667 121.507 39.0932 121.507 47.0639V105.053C121.507 113.023 114.67 119.55 106.319 119.55Z" fill="#93C120"/>
<path d="M136.623 101.42L155.609 119.541H167V39.8064H155.609L136.623 57.9279V101.42Z" fill="#93C120"/>
<path d="M75.9513 101.428H22.7917C18.609 101.428 15.1975 98.1721 15.1975 94.1797V57.9366C15.1975 53.9442 18.609 50.688 22.7917 50.688H75.9513C80.134 50.688 83.5455 53.9442 83.5455 57.9366V94.1797C83.5455 98.1721 80.134 101.428 75.9513 101.428Z" fill="white"/>
<path d="M121.453 57.928H136.641V101.42H121.453V57.928Z" fill="#93C120"/>
<path d="M148.024 21.7458H132.835C130.551 21.7458 129.038 20.3018 129.038 18.1215V3.62431C129.038 1.44406 130.551 0 132.835 0H148.024C154.476 0 159.415 4.71443 159.415 10.8729C159.415 17.0314 154.476 21.7458 148.024 21.7458Z" fill="#93C120"/>
<path d="M22.7917 57.9368H75.9513V94.1798H22.7917V57.9368Z" fill="#93C120"/>
<path d="M43.6805 66.991L26.5935 90.549H60.7675L43.6805 66.991Z" fill="black"/>
<path d="M72.1406 67.0019C72.1406 70.0033 69.5894 72.4384 66.4449 72.4384C63.3005 72.4384 60.7493 70.0033 60.7493 67.0019C60.7493 64.0005 63.3005 61.5654 66.4449 61.5654C69.5894 61.5654 72.1406 64.0005 72.1406 67.0019Z" fill="white"/>
<path d="M58.8597 74.6091L45.5698 90.5504H72.1496L58.8597 74.6091Z" fill="black"/>
</svg>
