<svg width="163" height="159" viewBox="0 0 163 159" fill="none" xmlns="http://www.w3.org/2000/svg">
<path d="M75.1576 118.508C80.2723 112.938 93.2059 109.093 96.5125 105.689C99.8192 102.268 103.387 96.7625 99.9007 93.1463C96.4148 89.5464 88.9707 102.464 80.761 93.9608C75.4671 88.4551 80.875 79.7078 85.3708 74.1859L78.8389 67.4096C75.2879 70.1462 71.8346 71.4493 69.5216 69.0385C65.6285 65.0151 67.5343 59.6886 70.4175 55.4697C73.1377 51.4789 76.8191 48.5795 74.392 46.0546C71.7857 43.3507 64.7652 42.9597 57.1419 50.8599C49.5349 58.7601 46.7495 73.7135 41.0972 79.5775C32.6431 88.3248 18.1622 85.2624 6.71094 97.1371C-9.77359 114.224 8.38872 133.022 15.7188 140.596C23.0326 148.187 41.3415 168.809 57.6306 151.95C69.9288 139.196 70.0265 124.096 75.1576 118.508Z" fill="#93C120"/>
<path d="M69.1901 73.5722C68.6363 73.4256 68.3105 73.3767 68.4734 73.4907C68.4734 73.4744 68.4734 73.4744 68.4571 73.4744C62.1043 72.7089 39.9675 82.8406 35.6346 107.486C31.318 132.131 46.9392 127.163 47.1836 126.903C47.4279 126.658 59.1723 126.316 62.707 128.206C62.7396 128.189 62.7559 128.173 62.7885 128.173C62.8374 128.222 62.9188 128.271 62.9188 128.271C64.9386 129.15 66.3395 127.945 66.9585 126.17C67.5612 124.394 69.6136 118.432 72.1873 115.598C75.6243 111.851 81.3906 109.082 86.4891 106.639C89.2582 105.303 92.7115 103.642 93.6237 102.697C95.4806 100.775 96.8163 98.7225 97.1421 97.3868C96.7838 97.5823 96.4254 97.794 96.1159 97.9732C92.2391 100.205 85.0393 104.342 77.8885 96.947C76.6342 95.6601 75.3311 93.7217 74.7772 91.0829C74.875 90.6594 75.0053 90.2848 75.103 89.8775L72.5619 92.5164L62.7396 82.3357L70.8027 73.9794C70.2326 73.8328 69.6788 73.6862 69.2227 73.5722" fill="white"/>
<path d="M45.0265 129.118C43.4302 130.78 40.8565 130.78 39.2602 129.118L27.7275 117.162C26.1312 115.517 26.1312 112.845 27.7275 111.2L30.6107 108.203C32.207 106.558 34.7807 106.558 36.377 108.203L47.9097 120.159C49.506 121.804 49.506 124.476 47.9097 126.137L45.0265 129.118Z" fill="black"/>
<path d="M59.4335 114.22C57.8372 115.881 55.2635 115.881 53.6672 114.22L42.1345 102.28C40.5382 100.619 40.5382 97.9472 42.1345 96.302C43.7308 94.6405 46.3045 94.6405 47.9008 96.302L59.4335 108.242C61.0298 109.903 61.0298 112.575 59.4335 114.22Z" fill="black"/>
<path d="M68.0588 99.3048L56.5261 87.3487L129.24 19.407L135.007 25.3851L68.0588 99.3048Z" fill="black"/>
<path d="M134.906 13.4889L129.172 19.4344L134.271 26.1618L146.113 25.7872C146.113 25.7872 153.231 13.098 156.114 11.6971C158.981 10.2963 160.887 10.4592 160.887 10.4592C160.887 10.4592 163.77 7.47827 160.887 4.48108C158.004 1.50018 154.16 3.74807 154.16 3.74807" fill="black"/>
<path d="M154.353 12.2656C153.359 12.8194 151.795 12.233 151.225 11.2231L146.794 3.09483C146.241 2.10119 146.599 0.830645 147.593 0.260527C148.603 -0.293299 149.873 0.0650569 150.443 1.05869L154.874 9.18693C155.428 10.1969 155.363 11.7117 154.353 12.2656Z" fill="black"/>
<path d="M148.481 18.9176C147.471 19.4714 146.201 19.113 145.647 18.1194L139.538 7.18945C138.985 6.19582 139.343 4.92527 140.337 4.35516C141.346 3.78504 142.617 4.1434 143.187 5.15332L149.279 16.0833C149.849 17.0932 149.491 18.3475 148.481 18.9176Z" fill="black"/>
<path d="M141.217 22.9733C140.207 23.5271 138.937 23.1687 138.383 22.1588L132.275 11.2451C131.721 10.2352 132.079 8.96465 133.089 8.41082C134.083 7.84071 135.353 8.19907 135.923 9.20899L142.016 20.1227C142.586 21.1326 142.227 22.4031 141.217 22.9733Z" fill="black"/>
</svg>
